# xmcd
#
# Track frame offsets: 
#        150
#        9671
#        21622
#        32439
#        42473
#        53020
#        66240
#        77651
#        88846
#        101445
#        111857
#        120757
#
# Disc length: 1752 seconds
#
# Revision: 0
# Processed by: cddbd v1.5.2PL0 Copyright (c) Steve Scherf et al.
# Submitted via: ExactAudioCopy v0.95a5
#
DISCID=9206d60c
DTITLE=Bob Luman - Great Singers, Great Songs
DYEAR=1995
DGENRE=Country
TTITLE0=Let's Think About Living
TTITLE1=Five Miles From Home
TTITLE2=A Lonely Room
TTITLE3=Still Loving You
TTITLE4=The File
TTITLE5=The Great Snow Man
TTITLE6=If You Don't Love Me
TTITLE7=It's All Over But The Shouting
TTITLE8=Big River Rose
TTITLE9=Can't Take The Country From The Boy
TTITLE10=Running Scared
TTITLE11=Throwin' Kisses
EXTD=
EXTT0=
EXTT1=
EXTT2=
EXTT3=
EXTT4=
EXTT5=
EXTT6=
EXTT7=
EXTT8=
EXTT9=
EXTT10=
EXTT11=
PLAYORDER=
